<svg xmlns="http://www.w3.org/2000/svg" xmlns:xlink="http://www.w3.org/1999/xlink" width="225" height="94" viewBox="0 0 225 94">
    <defs>
        <path id="a" d="M.78.759h6.523v10.06H.78z"/>
        <path id="c" d="M.19.388h79.373v26.054H.19z"/>
        <path id="e" d="M0 .385h9.152v40.622H0z"/>
    </defs>
    <g fill="none" fill-rule="evenodd">
        <path fill="#1D1D1B" d="M42.882 38.41c-1.344-.649-2.468-.772-4.686-.772h-1.438c-.126 0-.312.063-.312.341v15.707c0 .739.469 1.111 1.312 1.111h1.03c2.5 0 7.313-.462 7.313-8.719 0-3.848-.937-6.47-3.219-7.668m3.28 16.66c-1.593.988-3.468 1.42-6.499 1.42H30.26c-.281 0-.438-.124-.438-.337v-.74c0-.279.094-.526.563-.526h.312c1 0 1.344-.523 1.344-2.031V39.579c0-1.51-.344-2.033-1.344-2.033h-.312c-.469 0-.563-.247-.563-.524v-.553c0-.341.094-.525.563-.525h9.373c2.501 0 4.563.341 6.03 1.048 3.188 1.573 5.063 4.896 5.063 9.116 0 4.097-1.72 7.27-4.688 8.963M62.854 46.386l-2.25-7.915c-.031-.155-.094-.37-.25-.37s-.217.246-.249.37L57.7 46.386c-.032.124-.095.278-.095.402 0 .153.157.213.438.213h4.469c.28 0 .437-.06.437-.213 0-.124-.063-.278-.094-.402m8.249 10.104h-7.186c-.282 0-.439-.124-.439-.339v-.738c0-.342.345-.495.5-.526l.314-.03c.531-.094.687-.369.687-.74 0-.278-.189-.83-.313-1.324l-1.061-3.756a.756.756 0 0 0-.22-.402c-.125-.03-.249-.06-.531-.06h-5.25c-.249 0-.374.03-.5.06a.818.818 0 0 0-.218.431l-1.124 3.727c-.157.494-.313 1.046-.313 1.324 0 .371.156.646.688.74l.312.03c.218.031.5.184.5.526v.738c0 .215-.157.339-.437.339h-5.093c-.282 0-.44-.124-.44-.339v-.709c0-.247.064-.524.471-.555l.28-.03c.594-.094 1.062-.645 1.407-1.633l5.156-15.646c.592-1.849.812-1.973 1.75-1.973h3.03c.781 0 1.062.279 1.562 2.065l4.75 15.617c.343 1.014.874 1.476 1.406 1.57l.28.03c.407.031.47.308.47.555v.71c0 .214-.157.338-.438.338M88.889 56.49h-3.22c-.623 0-.843-.03-1.092-.491l-4.531-6.841c-.436-.617-.375-.77-.781-.77h-.124c-.094 0-.28.093-.28.37v4.097c0 1.51.341 2.032 1.341 2.032h.157c.468 0 .563.248.563.526v.739c0 .214-.157.338-.437.338h-7.468c-.283 0-.438-.124-.438-.338v-.74c0-.277.155-.525.563-.525h.312c1 0 1.344-.491 1.344-2.032V38.718c0-1.45-.314-2.125-1.22-2.125h-.436a.527.527 0 0 1-.563-.525v-.555c0-.244.155-.523.563-.523h4.186c.624 0 .687-.094 1.03-.094h.157c.156 0 .345.063.345.278v11.674c0 .277.156.371.281.371h.626c.279 0 .467-.154.686-.37l3.592-3.636c.157-.153.345-.338.345-.552 0-.123-.094-.278-.22-.278l-.437-.03c-.343-.033-.531-.188-.531-.525v-.522c0-.247.096-.526.563-.526h4.563c.404 0 .56.279.56.526v.552c0 .218-.156.43-.56.525l-.502.091c-.624.093-1.093.46-1.968 1.325l-2.686 2.65c-.157.155-.282.276-.282.429 0 .123.063.218.155.341l4.502 6.436c.342.492.873 1.232 1.342 1.232.408 0 .563.279.563.526v.552a.527.527 0 0 1-.563.525M107.112 56.49h-3.22c-.623 0-.843-.03-1.092-.491l-4.532-6.841c-.435-.617-.374-.77-.78-.77h-.126c-.092 0-.279.093-.279.37v4.097c0 1.51.342 2.032 1.342 2.032h.157c.467 0 .563.248.563.526v.739c0 .214-.157.338-.438.338H91.24c-.282 0-.437-.124-.437-.338v-.74c0-.277.155-.525.561-.525h.314c1 0 1.343-.491 1.343-2.032V38.718c0-1.45-.313-2.125-1.22-2.125h-.437a.527.527 0 0 1-.561-.525v-.555c0-.244.155-.523.561-.523h4.188c.624 0 .687-.094 1.03-.094h.157c.155 0 .345.063.345.278v11.674c0 .277.155.371.28.371h.626c.28 0 .468-.154.687-.37l3.592-3.636c.157-.153.345-.338.345-.552 0-.123-.094-.278-.22-.278l-.437-.03c-.343-.033-.531-.188-.531-.525v-.522c0-.247.095-.526.563-.526h4.562c.405 0 .562.279.562.526v.552c0 .218-.157.43-.562.525l-.501.091c-.625.093-1.093.46-1.968 1.325l-2.686 2.65c-.157.155-.282.276-.282.429 0 .123.062.218.155.341l4.501 6.436c.342.492.874 1.232 1.343 1.232.407 0 .562.279.562.526v.552a.527.527 0 0 1-.562.525M115.023 56.768c-3.688 0-5.687-.833-5.687-1.727V52.27c0-.402.312-.556.532-.556h.78c.22 0 .375.185.5.585.44 1.416 1.064 2.835 3.97 2.835 2.343 0 3.593-1.077 3.593-2.924 0-1.296-.376-2.189-1.938-3.173l-3.437-2.065c-1.968-1.172-3.625-2.494-3.625-5.546 0-3.601 2.189-5.727 7.219-5.727 3.249 0 5.218.83 5.218 1.724v2.71a.528.528 0 0 1-.532.557h-.812c-.343 0-.376-.218-.469-.556-.123-.8-.531-2.804-3.53-2.804-2.406 0-3.343 1.172-3.343 2.74 0 1.697.686 2.313 2.124 3.143l3.062 1.694c1.905 1.077 3.936 2.095 3.936 5.977 0 4.157-2.937 5.884-7.56 5.884M99.321 69.39c0-.53-.066-1.02-.199-1.477a3.172 3.172 0 0 0-.624-1.18 2.905 2.905 0 0 0-1.076-.78c-.432-.183-.992-.276-1.676-.276h-1.34v7.598h1.354c.634 0 1.169-.079 1.601-.233a2.636 2.636 0 0 0 1.087-.719c.292-.32.51-.723.654-1.21.146-.485.22-1.059.22-1.724m1.385-.054c0 .846-.111 1.585-.329 2.215-.22.632-.54 1.156-.961 1.57a3.986 3.986 0 0 1-1.55.934c-.612.204-1.343.308-2.19.308H93.58a.573.573 0 0 1-.334-.115c-.103-.078-.156-.218-.156-.414v-8.71c0-.196.053-.332.156-.41a.548.548 0 0 1 .334-.118h2.244c.856 0 1.58.113 2.173.33.593.22 1.09.534 1.488.945.402.407.706.906.913 1.489.205.584.31 1.242.31 1.976M107.184 70.114c.015-.655-.132-1.169-.443-1.54-.31-.374-.771-.557-1.383-.557-.313 0-.587.057-.824.171a1.764 1.764 0 0 0-.593.462 2.08 2.08 0 0 0-.37.666c-.086.254-.136.52-.146.798h3.759zm1.271.368c0 .196-.052.338-.15.42a.52.52 0 0 1-.342.124h-4.538c0 .377.038.719.115 1.02.078.301.205.561.385.776.18.218.413.383.7.498.287.117.638.176 1.053.176.328 0 .621-.028.878-.079a5.51 5.51 0 0 0 1.126-.357.815.815 0 0 1 .273-.079.17.17 0 0 1 .097.028c.028.015.05.042.066.079a.591.591 0 0 1 .033.148 1.821 1.821 0 0 1-.016.527.35.35 0 0 1-.107.187c-.028.028-.11.073-.247.136a3.615 3.615 0 0 1-.536.184c-.22.062-.474.116-.762.164a5.626 5.626 0 0 1-.922.073c-.566 0-1.063-.08-1.49-.237a2.728 2.728 0 0 1-1.075-.694c-.29-.304-.51-.69-.659-1.153-.149-.465-.221-1.001-.221-1.615 0-.586.075-1.108.229-1.572.154-.468.373-.86.662-1.187a2.89 2.89 0 0 1 1.045-.745 3.43 3.43 0 0 1 1.37-.263c.542 0 1.003.087 1.382.257a2.59 2.59 0 0 1 1.477 1.71c.115.39.174.808.174 1.248v.226zM116.264 74.174c0 .039-.01.073-.029.102a.176.176 0 0 1-.094.07.606.606 0 0 1-.18.046c-.074.011-.165.014-.271.014-.118 0-.214-.003-.289-.014a.56.56 0 0 1-.175-.046.17.17 0 0 1-.088-.07.213.213 0 0 1-.022-.102v-.9c-.394.429-.781.74-1.165.936-.383.196-.77.297-1.164.297-.459 0-.846-.076-1.16-.228a2.02 2.02 0 0 1-.76-.615 2.477 2.477 0 0 1-.419-.906c-.085-.344-.125-.763-.125-1.256v-4.12c0-.043.009-.075.026-.103.017-.028.054-.05.104-.076a.791.791 0 0 1 .199-.044 3.951 3.951 0 0 1 .613 0 .75.75 0 0 1 .194.044.285.285 0 0 1 .104.076c.02.028.03.06.03.102v3.955c0 .396.03.716.087.954.06.24.15.444.269.614.12.165.272.298.456.392.183.09.398.138.643.138.316 0 .632-.111.945-.33.314-.225.648-.548.999-.976V67.38c0-.042.01-.074.027-.102a.26.26 0 0 1 .103-.076.818.818 0 0 1 .194-.044 3.993 3.993 0 0 1 .618 0c.082.009.146.024.192.044.045.025.08.048.103.076.022.028.035.06.035.102v6.793zM122.165 73.676c0 .145-.011.26-.032.348a.376.376 0 0 1-.09.187.629.629 0 0 1-.184.114 1.668 1.668 0 0 1-.28.085 3.788 3.788 0 0 1-.333.058 2.982 2.982 0 0 1-.353.023c-.356 0-.661-.048-.917-.138a1.513 1.513 0 0 1-.629-.423 1.74 1.74 0 0 1-.356-.719 4.177 4.177 0 0 1-.111-1.023v-3.97h-.964c-.077 0-.138-.04-.184-.12-.045-.079-.069-.212-.069-.393 0-.094.007-.176.02-.242a.662.662 0 0 1 .05-.16.175.175 0 0 1 .08-.09.241.241 0 0 1 .11-.027h.957v-1.615a.2.2 0 0 1 .027-.1.237.237 0 0 1 .098-.078.704.704 0 0 1 .196-.05c.082-.01.185-.013.308-.013.127 0 .232.003.313.014.082.009.146.028.192.05.045.022.08.047.098.076.02.031.032.064.032.1v1.616h1.768c.041 0 .077.01.107.026.031.016.056.047.08.092.023.041.04.095.05.159.011.066.016.148.016.242 0 .181-.024.314-.07.393-.045.08-.106.12-.183.12h-1.768v3.789c0 .468.07.82.21 1.062.14.24.392.357.754.357.118 0 .223-.01.314-.034.092-.02.174-.045.246-.071.072-.025.133-.05.183-.07a.314.314 0 0 1 .138-.037c.025 0 .049.006.072.022.022.012.041.035.054.07a.804.804 0 0 1 .034.145c.011.06.016.134.016.225M128.16 72.324c0 .348-.066.658-.197.93-.13.27-.313.501-.555.685-.24.187-.523.33-.856.422a3.888 3.888 0 0 1-1.096.145 4.434 4.434 0 0 1-1.298-.2 3.854 3.854 0 0 1-.447-.18 1.323 1.323 0 0 1-.268-.172.434.434 0 0 1-.122-.211 1.376 1.376 0 0 1-.038-.368c0-.098.005-.18.014-.243a.848.848 0 0 1 .04-.16c.015-.038.036-.069.064-.084a.185.185 0 0 1 .095-.026c.057 0 .14.032.25.102.11.066.244.142.404.22.162.081.353.157.573.223.217.07.47.104.757.104.215 0 .41-.025.582-.07.172-.046.324-.113.451-.2a.898.898 0 0 0 .295-.335 1.06 1.06 0 0 0 .103-.483.762.762 0 0 0-.15-.483 1.364 1.364 0 0 0-.394-.347 3.12 3.12 0 0 0-.55-.268c-.204-.079-.416-.16-.632-.245a7.845 7.845 0 0 1-.637-.29 2.415 2.415 0 0 1-.553-.398 1.758 1.758 0 0 1-.395-.558 1.826 1.826 0 0 1-.15-.776c0-.27.053-.523.158-.767.105-.246.262-.459.47-.64.21-.185.47-.332.784-.445a3.386 3.386 0 0 1 1.1-.165c.184 0 .368.015.551.045.184.03.35.07.499.116.147.044.273.092.378.146.105.051.183.098.236.14.054.038.091.075.109.105.017.03.03.063.037.103.008.036.016.082.024.14a2.223 2.223 0 0 1 0 .425.517.517 0 0 1-.04.154.176.176 0 0 1-.064.086.139.139 0 0 1-.084.028c-.046 0-.112-.028-.2-.085a3.532 3.532 0 0 0-.823-.352 2.167 2.167 0 0 0-.638-.085 2.01 2.01 0 0 0-.566.072 1.049 1.049 0 0 0-.403.206.856.856 0 0 0-.238.31.966.966 0 0 0-.079.393c0 .197.05.362.152.495.104.133.236.25.399.35.164.103.35.194.56.271.208.082.421.164.638.252.216.084.43.181.642.286.214.105.4.232.563.383.165.152.295.333.394.544.1.21.15.464.15.755M134.92 73.139c0 .088-.003.16-.008.224a.802.802 0 0 1-.026.16.52.52 0 0 1-.047.11.677.677 0 0 1-.123.146c-.063.06-.17.139-.324.232a3.333 3.333 0 0 1-.518.251c-.191.072-.398.13-.622.175-.226.045-.457.07-.698.07-.494 0-.933-.082-1.317-.241a2.498 2.498 0 0 1-.961-.708 3.197 3.197 0 0 1-.59-1.138 5.474 5.474 0 0 1-.202-1.561c0-.666.083-1.243.248-1.723.167-.48.393-.875.682-1.181.29-.308.627-.534 1.017-.682.39-.151.814-.222 1.269-.222a3.543 3.543 0 0 1 1.209.216c.174.066.327.142.462.227.137.087.235.16.297.22.06.06.102.11.125.142a.651.651 0 0 1 .09.287c.004.06.006.135.006.226 0 .196-.022.335-.068.414-.047.074-.103.115-.17.115-.076 0-.164-.04-.264-.124a3.898 3.898 0 0 0-.378-.275 2.763 2.763 0 0 0-.557-.275 2.123 2.123 0 0 0-.768-.127c-.607 0-1.072.233-1.397.692-.323.461-.486 1.129-.486 2.004 0 .438.04.822.125 1.151.085.328.209.603.372.827.165.22.364.386.6.495.239.105.51.16.818.16.29 0 .545-.046.765-.136.22-.09.409-.19.569-.297a6.03 6.03 0 0 0 .406-.295c.11-.088.196-.133.257-.133.036 0 .066.013.093.03a.242.242 0 0 1 .064.103c.017.048.03.108.037.181.008.073.013.16.013.26M142.514 74.174a.175.175 0 0 1-.031.102.197.197 0 0 1-.099.07.624.624 0 0 1-.191.046c-.082.011-.184.014-.306.014-.127 0-.233-.003-.315-.014a.649.649 0 0 1-.191-.046.212.212 0 0 1-.099-.07.175.175 0 0 1-.031-.102v-3.978c0-.387-.03-.697-.091-.937a1.893 1.893 0 0 0-.268-.609 1.139 1.139 0 0 0-.456-.392 1.453 1.453 0 0 0-.647-.136c-.316 0-.633.108-.95.332-.317.22-.647.546-.996.972v4.748c0 .039-.009.073-.03.102a.21.21 0 0 1-.1.07.624.624 0 0 1-.191.046c-.08.011-.187.014-.314.014-.122 0-.224-.003-.305-.014a.685.685 0 0 1-.196-.046.202.202 0 0 1-.1-.07.214.214 0 0 1-.026-.102V64.092c0-.043.01-.076.025-.107a.209.209 0 0 1 .1-.075.747.747 0 0 1 .197-.045 2.15 2.15 0 0 1 .305-.016c.127 0 .234.004.314.016.082.01.146.025.191.045.047.018.08.046.1.075.021.031.03.064.03.107v4.065c.364-.377.728-.657 1.096-.84a2.456 2.456 0 0 1 1.11-.276c.46 0 .846.079 1.16.232.313.152.568.357.761.614.195.256.333.558.417.902.085.343.127.76.127 1.25v4.135zM149.412 70.114c.017-.655-.131-1.169-.441-1.54-.311-.374-.772-.557-1.384-.557-.313 0-.588.057-.824.171a1.764 1.764 0 0 0-.593.462c-.16.19-.282.413-.37.666-.086.254-.137.52-.146.798h3.758zm1.272.368c0 .196-.052.338-.15.42a.52.52 0 0 1-.342.124h-4.538c0 .377.038.719.115 1.02.078.301.205.561.385.776.179.218.413.383.7.498.287.117.638.176 1.053.176.328 0 .621-.028.878-.079a5.47 5.47 0 0 0 .663-.18 5.53 5.53 0 0 0 .463-.177.815.815 0 0 1 .273-.079.17.17 0 0 1 .097.028.15.15 0 0 1 .066.079.558.558 0 0 1 .033.148 1.821 1.821 0 0 1-.016.527.278.278 0 0 1-.038.1.332.332 0 0 1-.068.087c-.029.028-.11.073-.248.136a3.615 3.615 0 0 1-.536.184c-.22.062-.473.116-.762.164a5.626 5.626 0 0 1-.922.073c-.566 0-1.064-.08-1.49-.237a2.728 2.728 0 0 1-1.076-.694c-.29-.304-.51-.69-.658-1.153-.15-.465-.221-1.001-.221-1.615 0-.586.075-1.108.229-1.572.153-.468.373-.86.661-1.187a2.89 2.89 0 0 1 1.046-.745 3.43 3.43 0 0 1 1.37-.263c.542 0 1.003.087 1.383.257a2.594 2.594 0 0 1 1.476 1.71c.114.39.174.808.174 1.248v.226zM96.244 81.9h-.008l-1.708 4.868h3.447L96.244 81.9zm4.264 8.009c.041.108.063.2.065.267.003.067-.016.12-.057.155a.387.387 0 0 1-.204.066 3.15 3.15 0 0 1-.378.016c-.158 0-.285-.003-.38-.013a.856.856 0 0 1-.214-.035.249.249 0 0 1-.108-.073.622.622 0 0 1-.064-.113l-.85-2.378h-4.119l-.81 2.349a.418.418 0 0 1-.062.117.307.307 0 0 1-.113.082.726.726 0 0 1-.205.048c-.09.013-.206.016-.348.016-.15 0-.27-.006-.366-.019-.092-.012-.16-.035-.199-.072-.037-.033-.055-.084-.053-.153a.972.972 0 0 1 .066-.27l3.322-9.07c.02-.056.049-.101.08-.137a.345.345 0 0 1 .146-.082c.064-.021.146-.032.245-.041a6.047 6.047 0 0 1 .785 0c.108.009.195.02.26.041a.316.316 0 0 1 .154.088c.035.036.065.08.085.138l3.322 9.073zM107.658 90.17a.178.178 0 0 1-.031.106.202.202 0 0 1-.104.076.632.632 0 0 1-.202.045 2.477 2.477 0 0 1-.33.015 3.52 3.52 0 0 1-.34-.012.956.956 0 0 1-.225-.036.403.403 0 0 1-.15-.076.577.577 0 0 1-.103-.117l-2.91-3.76v3.77a.186.186 0 0 1-.03.101.22.22 0 0 1-.1.07.586.586 0 0 1-.191.045 2.23 2.23 0 0 1-.314.015c-.122 0-.225-.003-.305-.015a.641.641 0 0 1-.196-.045.204.204 0 0 1-.1-.07.197.197 0 0 1-.026-.102V80.097c0-.042.008-.075.025-.106a.201.201 0 0 1 .1-.075.747.747 0 0 1 .197-.045c.08-.013.183-.016.305-.016.127 0 .232.003.314.016.081.01.146.025.191.045.047.018.08.046.1.075.02.031.03.064.03.106v6.143l2.603-2.822a.604.604 0 0 1 .13-.124.743.743 0 0 1 .165-.085c.064-.021.14-.035.226-.044a4.376 4.376 0 0 1 .636 0c.086.009.155.02.21.038.054.016.091.04.115.067a.17.17 0 0 1 .034.108.377.377 0 0 1-.05.182.979.979 0 0 1-.164.21l-2.495 2.461 2.802 3.586a1.5 1.5 0 0 1 .14.209c.03.05.043.1.043.145M114.77 90.17a.178.178 0 0 1-.03.106.202.202 0 0 1-.104.076.632.632 0 0 1-.202.045 2.477 2.477 0 0 1-.33.015 3.52 3.52 0 0 1-.342-.012.956.956 0 0 1-.224-.036.403.403 0 0 1-.15-.076.577.577 0 0 1-.102-.117l-2.91-3.76v3.77a.186.186 0 0 1-.03.101.22.22 0 0 1-.1.07.586.586 0 0 1-.192.045 2.23 2.23 0 0 1-.313.015c-.123 0-.226-.003-.306-.015a.641.641 0 0 1-.196-.045.204.204 0 0 1-.1-.07.197.197 0 0 1-.026-.102V80.097c0-.042.008-.075.026-.106a.201.201 0 0 1 .1-.075.747.747 0 0 1 .196-.045c.08-.013.183-.016.306-.016.127 0 .232.003.313.016.082.01.146.025.192.045.047.018.08.046.1.075.019.031.03.064.03.106v6.143l2.602-2.822a.604.604 0 0 1 .13-.124.743.743 0 0 1 .165-.085c.065-.021.14-.035.226-.044a4.376 4.376 0 0 1 .637 0c.086.009.155.02.21.038.053.016.09.04.114.067a.17.17 0 0 1 .035.108.377.377 0 0 1-.05.182.979.979 0 0 1-.165.21l-2.495 2.461 2.802 3.586a1.5 1.5 0 0 1 .141.209c.029.05.043.1.043.145M120.25 83.831c0 .112-.002.206-.007.282a.759.759 0 0 1-.03.177.236.236 0 0 1-.06.096c-.021.025-.053.034-.093.034-.041 0-.091-.009-.151-.034-.058-.02-.124-.045-.2-.066a1.634 1.634 0 0 0-.546-.096 1.01 1.01 0 0 0-.375.076c-.122.05-.25.133-.387.25a3.16 3.16 0 0 0-.424.46c-.149.192-.31.424-.49.702v4.467c0 .04-.011.073-.03.104a.232.232 0 0 1-.1.07.679.679 0 0 1-.192.044 2.23 2.23 0 0 1-.313.016c-.123 0-.226-.003-.306-.016a.747.747 0 0 1-.196-.045.214.214 0 0 1-.1-.07.203.203 0 0 1-.026-.103v-6.791c0-.042.008-.076.022-.104a.223.223 0 0 1 .093-.074.585.585 0 0 1 .175-.046 3.352 3.352 0 0 1 .563 0c.074.009.132.024.173.046.04.023.07.048.088.074a.192.192 0 0 1 .026.104v.987c.188-.272.367-.493.532-.664.166-.17.323-.305.472-.402.149-.099.293-.165.439-.206.146-.035.293-.057.44-.057a2.533 2.533 0 0 1 .739.12.677.677 0 0 1 .158.077c.03.027.05.05.061.072a.793.793 0 0 1 .04.241c.004.07.006.161.006.275M126.092 86.12c.016-.656-.131-1.169-.442-1.54-.31-.374-.771-.558-1.383-.558-.313 0-.588.057-.824.172a1.764 1.764 0 0 0-.593.462 2.08 2.08 0 0 0-.37.666c-.086.254-.137.52-.146.798h3.758zm1.272.368c0 .196-.052.338-.15.42a.52.52 0 0 1-.342.124h-4.538c0 .377.038.718.114 1.02.079.301.206.56.386.776.179.218.413.383.7.497.286.118.638.176 1.053.176.328 0 .621-.027.878-.078a5.51 5.51 0 0 0 1.126-.357.815.815 0 0 1 .273-.08.17.17 0 0 1 .097.029c.028.015.05.041.066.078a.591.591 0 0 1 .033.149 1.821 1.821 0 0 1-.016.527.35.35 0 0 1-.107.187c-.028.028-.11.073-.247.136a3.615 3.615 0 0 1-.536.184c-.22.062-.474.116-.763.164a5.626 5.626 0 0 1-.921.072c-.566 0-1.064-.078-1.49-.236a2.728 2.728 0 0 1-1.076-.694c-.29-.305-.51-.691-.658-1.153-.15-.465-.221-1.002-.221-1.615 0-.586.075-1.109.229-1.572.153-.469.373-.861.661-1.187a2.89 2.89 0 0 1 1.046-.745 3.43 3.43 0 0 1 1.37-.263c.541 0 1.002.087 1.382.257a2.59 2.59 0 0 1 1.477 1.71c.114.39.174.807.174 1.248v.226zM133.917 85.401c-.342-.417-.673-.734-.993-.953a1.744 1.744 0 0 0-.999-.33c-.321 0-.592.076-.818.226a1.75 1.75 0 0 0-.549.598 2.885 2.885 0 0 0-.306.836c-.062.314-.094.63-.094.95 0 .346.025.678.079 1.007.053.326.147.615.28.872.134.253.31.456.529.61.22.153.494.23.826.23a1.685 1.685 0 0 0 .966-.293c.163-.107.332-.244.513-.411.178-.169.367-.377.566-.625v-2.717zm1.271 4.78c0 .038-.01.075-.028.104a.174.174 0 0 1-.092.073.718.718 0 0 1-.171.039 1.598 1.598 0 0 1-.26.015c-.107 0-.197-.003-.269-.015a.806.806 0 0 1-.175-.039.203.203 0 0 1-.1-.073.197.197 0 0 1-.03-.105v-.9c-.364.39-.74.692-1.131.906-.39.217-.817.327-1.281.327-.506 0-.938-.098-1.295-.291a2.453 2.453 0 0 1-.869-.785 3.486 3.486 0 0 1-.486-1.162 6.301 6.301 0 0 1-.152-1.41c0-.583.064-1.11.191-1.578.127-.472.317-.873.566-1.206.25-.33.56-.587.93-.766.37-.178.798-.268 1.283-.268.403 0 .771.087 1.105.261.336.174.667.43.993.765v-3.946c0-.037.01-.07.026-.103.018-.033.054-.057.104-.074.05-.019.116-.034.194-.047.08-.01.18-.017.303-.017.127 0 .234.007.315.017.08.013.144.028.191.047a.213.213 0 0 1 .102.074.177.177 0 0 1 .036.103V90.18zM138.756 90.18a.175.175 0 0 1-.032.102.204.204 0 0 1-.098.07.624.624 0 0 1-.192.046c-.081.01-.186.014-.313.014-.123 0-.226-.003-.308-.014a.713.713 0 0 1-.196-.046.197.197 0 0 1-.098-.07.198.198 0 0 1-.027-.102v-6.793a.2.2 0 0 1 .027-.099.213.213 0 0 1 .098-.076c.05-.018.116-.032.196-.045.082-.009.185-.015.308-.015.127 0 .232.006.313.015a.89.89 0 0 1 .192.045c.045.022.08.045.098.076.02.03.032.063.032.099v6.793zm.146-9.087c0 .29-.057.489-.17.595-.111.105-.318.16-.62.16-.296 0-.5-.052-.61-.154-.107-.106-.162-.3-.162-.585 0-.294.056-.493.168-.599.11-.105.318-.156.62-.156.295 0 .5.051.607.153.112.104.167.3.167.586zM147.629 81.093c0 .29-.057.489-.168.595-.112.106-.32.16-.621.16-.295 0-.499-.051-.61-.153-.108-.107-.163-.3-.163-.586 0-.294.056-.493.168-.598.113-.105.318-.158.62-.158.295 0 .5.053.609.155.11.102.165.298.165.585zm-.544 2.098c.153 0 .257.034.315.103.056.067.083.166.083.296v6.59a.186.186 0 0 1-.03.102.211.211 0 0 1-.104.07.673.673 0 0 1-.195.046c-.08.01-.18.014-.298.014-.127 0-.234-.003-.314-.014a.685.685 0 0 1-.196-.046.212.212 0 0 1-.103-.07.186.186 0 0 1-.03-.102v-5.957h-3.561v3.79c0 .467.07.82.21 1.062.142.238.392.357.754.357.12 0 .223-.01.315-.034.091-.022.173-.045.245-.073.072-.023.134-.048.183-.07a.341.341 0 0 1 .138-.035c.027 0 .049.006.073.02.022.013.04.037.053.07a1.238 1.238 0 0 1 .05.372c0 .144-.01.26-.03.344a.405.405 0 0 1-.092.187.581.581 0 0 1-.184.119 1.503 1.503 0 0 1-.28.083 2.89 2.89 0 0 1-.332.057 2.704 2.704 0 0 1-.352.025c-.357 0-.663-.048-.919-.14a1.505 1.505 0 0 1-.629-.421c-.163-.19-.28-.43-.355-.719a4.15 4.15 0 0 1-.11-1.023v-3.97h-.965c-.078 0-.14-.04-.185-.121-.045-.08-.069-.21-.069-.393 0-.093.007-.175.02-.241a.74.74 0 0 1 .05-.16.169.169 0 0 1 .08-.09.226.226 0 0 1 .11-.028h.959v-1.614a.2.2 0 0 1 .025-.1.252.252 0 0 1 .1-.08.743.743 0 0 1 .196-.047c.08-.012.184-.016.306-.016.127 0 .232.004.314.016.081.01.145.028.19.048.046.025.08.05.101.079.019.03.03.063.03.1v1.614h4.433zM154.435 86.12c.016-.656-.132-1.169-.442-1.54-.31-.374-.772-.558-1.383-.558-.314 0-.588.057-.825.172a1.764 1.764 0 0 0-.593.462c-.16.19-.282.413-.369.666-.087.254-.137.52-.147.798h3.759zm1.271.368c0 .196-.05.338-.15.42a.523.523 0 0 1-.342.124h-4.538c0 .377.038.718.116 1.02.077.301.204.56.385.776.178.218.412.383.699.497.288.118.638.176 1.054.176.327 0 .62-.027.878-.078a5.672 5.672 0 0 0 1.127-.357.807.807 0 0 1 .271-.08.17.17 0 0 1 .097.029.15.15 0 0 1 .066.078.558.558 0 0 1 .033.149 1.821 1.821 0 0 1-.016.527.278.278 0 0 1-.037.1.333.333 0 0 1-.07.087 1.13 1.13 0 0 1-.246.136 3.661 3.661 0 0 1-.537.184c-.22.062-.473.116-.762.164a5.616 5.616 0 0 1-.921.072c-.567 0-1.064-.078-1.49-.236a2.728 2.728 0 0 1-1.076-.694c-.29-.305-.51-.691-.659-1.153-.149-.465-.22-1.002-.22-1.615 0-.586.074-1.109.228-1.572.154-.469.374-.861.662-1.187a2.89 2.89 0 0 1 1.046-.745 3.43 3.43 0 0 1 1.37-.263c.54 0 1.002.087 1.382.257a2.594 2.594 0 0 1 1.476 1.71c.115.39.174.807.174 1.248v.226zM161.64 83.831c0 .112-.004.206-.009.282a.759.759 0 0 1-.03.177.228.228 0 0 1-.06.096c-.02.025-.052.034-.093.034s-.09-.009-.15-.034c-.059-.02-.125-.045-.2-.066a1.634 1.634 0 0 0-.546-.096 1.01 1.01 0 0 0-.376.076 1.47 1.47 0 0 0-.386.25 3.075 3.075 0 0 0-.424.46c-.15.192-.31.424-.49.702v4.467c0 .04-.012.073-.03.104a.242.242 0 0 1-.1.07.692.692 0 0 1-.193.044 2.23 2.23 0 0 1-.313.016c-.123 0-.226-.003-.306-.016a.747.747 0 0 1-.196-.045.214.214 0 0 1-.1-.07.203.203 0 0 1-.025-.103v-6.791c0-.042.007-.076.022-.104a.215.215 0 0 1 .092-.074.591.591 0 0 1 .176-.046 3.358 3.358 0 0 1 .563 0c.073.009.131.024.172.046a.238.238 0 0 1 .088.074.185.185 0 0 1 .026.104v.987c.19-.272.367-.493.532-.664.166-.17.323-.305.473-.402.148-.099.293-.165.438-.206.147-.035.293-.057.44-.057a2.547 2.547 0 0 1 .739.12.677.677 0 0 1 .158.077.27.27 0 0 1 .062.072.487.487 0 0 1 .025.088.878.878 0 0 1 .015.153c.003.07.005.161.005.275M168.964 90.18c0 .039-.01.073-.028.102a.176.176 0 0 1-.093.07.618.618 0 0 1-.181.046c-.073.01-.165.014-.27.014-.12 0-.215-.003-.29-.014a.554.554 0 0 1-.175-.046.17.17 0 0 1-.089-.07.213.213 0 0 1-.021-.102v-.9c-.394.429-.781.74-1.165.936-.383.196-.77.296-1.164.296-.46 0-.847-.075-1.16-.227a2.025 2.025 0 0 1-.76-.615 2.477 2.477 0 0 1-.42-.906 5.394 5.394 0 0 1-.125-1.256v-4.121c0-.042.01-.074.027-.102a.254.254 0 0 1 .103-.076.791.791 0 0 1 .2-.045 3.951 3.951 0 0 1 .613 0c.08.01.146.025.194.045.05.025.084.048.104.076.02.028.03.06.03.102v3.955c0 .396.03.716.087.954.06.24.15.443.268.613.121.166.274.299.457.393.184.09.398.138.642.138.317 0 .632-.112.946-.331.313-.224.648-.547.999-.975v-4.747c0-.042.01-.074.026-.102a.266.266 0 0 1 .104-.076.818.818 0 0 1 .194-.045 4.01 4.01 0 0 1 .618 0c.082.01.147.025.191.045.046.025.081.048.104.076.022.028.034.06.034.102v6.793zM177.217 90.18a.175.175 0 0 1-.031.102.197.197 0 0 1-.099.07.624.624 0 0 1-.191.046c-.082.01-.184.014-.306.014-.127 0-.233-.003-.315-.014a.649.649 0 0 1-.191-.046.212.212 0 0 1-.099-.07.175.175 0 0 1-.031-.102v-3.978c0-.387-.03-.698-.091-.937a1.893 1.893 0 0 0-.268-.61 1.139 1.139 0 0 0-.456-.392 1.453 1.453 0 0 0-.647-.136c-.316 0-.633.108-.95.333-.317.22-.647.545-.996.972v4.748c0 .039-.009.073-.03.102a.202.202 0 0 1-.1.07.624.624 0 0 1-.191.046 2.51 2.51 0 0 1-.314.014c-.122 0-.224-.003-.305-.014a.685.685 0 0 1-.196-.046.202.202 0 0 1-.1-.07.214.214 0 0 1-.025-.102v-6.793a.22.22 0 0 1 .021-.102.23.23 0 0 1 .093-.076.639.639 0 0 1 .175-.045 3.268 3.268 0 0 1 .564 0c.074.01.13.025.172.045.04.025.07.048.088.076.017.028.026.06.026.102v.898c.387-.427.775-.74 1.16-.94.386-.2.775-.298 1.169-.298.459 0 .845.079 1.158.232.314.151.569.357.762.613.195.257.333.558.417.903.085.343.127.757.127 1.24v4.145z"/>
        <g transform="translate(177.962 82.303)">
            <mask id="b" fill="#fff">
                <use xlink:href="#a"/>
            </mask>
            <path fill="#1D1D1B" d="M5.327 3.183c0-.466-.129-.824-.387-1.084-.257-.26-.624-.39-1.098-.39-.246 0-.458.042-.64.121-.18.082-.33.193-.453.332a1.455 1.455 0 0 0-.266.489c-.06.18-.088.374-.088.576 0 .447.128.801.386 1.058.258.256.619.383 1.083.383.25 0 .467-.039.65-.114.186-.08.337-.188.455-.327.123-.139.211-.3.269-.48.06-.181.089-.368.089-.564m.636 5.378a.757.757 0 0 0-.364-.672c-.242-.16-.57-.244-.984-.254l-1.784-.06a3.161 3.161 0 0 0-.403.359 1.974 1.974 0 0 0-.248.323 1.105 1.105 0 0 0-.16.617c0 .326.168.573.505.741.337.169.808.254 1.409.254.382 0 .703-.036.96-.111.259-.073.466-.169.624-.29.159-.122.271-.26.34-.414.07-.157.105-.32.105-.493m1.34-7.168c0 .177-.026.304-.074.383-.047.076-.11.114-.187.114h-.988c.18.181.303.384.375.602.072.22.107.446.107.681 0 .393-.064.74-.191 1.042-.127.301-.31.558-.547.767a2.52 2.52 0 0 1-.846.48c-.326.109-.689.166-1.088.166a2.89 2.89 0 0 1-.8-.108c-.252-.076-.448-.167-.584-.279a1.182 1.182 0 0 0-.228.311.87.87 0 0 0-.088.399c0 .177.083.323.25.437.166.118.387.178.661.19l1.8.076c.342.01.656.057.943.14.285.084.531.202.741.355.21.151.372.341.491.565.118.223.176.483.176.782 0 .311-.066.606-.2.89-.133.28-.335.528-.609.743-.273.214-.619.383-1.044.503-.423.124-.924.187-1.5.187-.555 0-1.031-.047-1.422-.14-.39-.091-.71-.218-.96-.38a1.49 1.49 0 0 1-.543-.578 1.608 1.608 0 0 1-.168-.727c0-.167.02-.33.061-.484.04-.156.102-.304.187-.446.084-.14.19-.275.313-.402.126-.13.27-.257.433-.384a1.344 1.344 0 0 1-.555-.473 1.158 1.158 0 0 1-.179-.62c0-.307.064-.582.191-.823a2.81 2.81 0 0 1 .474-.65 2.285 2.285 0 0 1-.375-.627 2.364 2.364 0 0 1-.137-.851c0-.387.066-.733.198-1.042.134-.305.317-.564.553-.776.233-.21.515-.374.845-.485.33-.115.689-.172 1.075-.172.21 0 .405.01.585.036.183.021.353.05.511.094h2.082c.087 0 .15.042.195.123.044.084.066.21.066.38" mask="url(#b)"/>
        </g>
        <path fill="#1D1D1B" d="M191.213 88.33c0 .347-.066.658-.196.93-.13.27-.313.5-.556.685-.24.187-.523.329-.856.422a3.884 3.884 0 0 1-1.096.145 4.434 4.434 0 0 1-1.298-.2 3.854 3.854 0 0 1-.447-.18 1.346 1.346 0 0 1-.268-.172.434.434 0 0 1-.122-.212 1.376 1.376 0 0 1-.038-.368c0-.097.005-.179.014-.242a.841.841 0 0 1 .04-.16.158.158 0 0 1 .065-.084.18.18 0 0 1 .094-.027c.057 0 .14.033.25.102.11.067.245.143.404.221.162.08.353.156.573.223.218.07.47.103.757.103.215 0 .41-.024.582-.07.172-.045.324-.112.451-.198a.891.891 0 0 0 .295-.336 1.06 1.06 0 0 0 .103-.484.762.762 0 0 0-.15-.482 1.364 1.364 0 0 0-.394-.348 3.12 3.12 0 0 0-.55-.267c-.204-.079-.415-.16-.632-.246a7.83 7.83 0 0 1-.636-.289 2.403 2.403 0 0 1-.554-.399 1.768 1.768 0 0 1-.394-.558c-.1-.214-.15-.474-.15-.775 0-.27.053-.523.157-.767.105-.246.262-.46.47-.64.211-.185.471-.332.784-.445a3.386 3.386 0 0 1 1.1-.166c.185 0 .368.016.551.045.184.031.35.07.499.116.148.045.273.093.378.147.105.051.183.097.236.14a.392.392 0 0 1 .109.104c.017.031.03.064.037.104a1.496 1.496 0 0 1 .035.341c0 .087-.005.16-.011.223a.517.517 0 0 1-.04.155.176.176 0 0 1-.064.086.139.139 0 0 1-.084.028c-.046 0-.112-.028-.2-.085a3.532 3.532 0 0 0-.823-.352 2.167 2.167 0 0 0-.638-.085 2.01 2.01 0 0 0-.566.072 1.049 1.049 0 0 0-.403.206.865.865 0 0 0-.317.703c0 .196.051.362.153.495.103.133.235.25.398.35.164.102.35.194.56.27.208.083.421.165.638.253.216.083.43.18.643.286.213.105.4.232.563.383.165.152.295.332.394.544.1.21.15.464.15.754M197.345 88.33c0 .347-.066.658-.196.93-.13.27-.313.5-.555.685-.24.187-.524.329-.856.422a3.884 3.884 0 0 1-1.096.145 4.434 4.434 0 0 1-1.298-.2 3.854 3.854 0 0 1-.447-.18 1.323 1.323 0 0 1-.268-.172.434.434 0 0 1-.123-.212 1.376 1.376 0 0 1-.037-.368c0-.097.004-.179.014-.242a.914.914 0 0 1 .039-.16.165.165 0 0 1 .064-.084.185.185 0 0 1 .096-.027c.056 0 .14.033.25.102.109.067.244.143.404.221.161.08.353.156.572.223.219.07.47.103.757.103.215 0 .41-.024.582-.07.173-.045.325-.112.452-.198a.891.891 0 0 0 .294-.336 1.06 1.06 0 0 0 .104-.484.762.762 0 0 0-.15-.482 1.364 1.364 0 0 0-.394-.348 3.12 3.12 0 0 0-.55-.267c-.204-.079-.416-.16-.632-.246a7.709 7.709 0 0 1-.636-.289 2.403 2.403 0 0 1-.554-.399 1.768 1.768 0 0 1-.395-.558 1.814 1.814 0 0 1-.15-.775c0-.27.053-.523.157-.767.105-.246.262-.46.47-.64.212-.185.472-.332.785-.445a3.386 3.386 0 0 1 1.1-.166c.184 0 .367.016.55.045.184.031.35.07.5.116.147.045.272.093.378.147.104.051.183.097.236.14a.392.392 0 0 1 .108.104c.017.031.03.064.038.104a1.496 1.496 0 0 1 .034.341c0 .087-.004.16-.01.223a.517.517 0 0 1-.04.155.176.176 0 0 1-.064.086.139.139 0 0 1-.085.028c-.045 0-.111-.028-.2-.085a3.532 3.532 0 0 0-.823-.352 2.167 2.167 0 0 0-.637-.085 2.01 2.01 0 0 0-.566.072 1.049 1.049 0 0 0-.403.206.856.856 0 0 0-.239.31.966.966 0 0 0-.078.393c0 .196.05.362.152.495.103.133.235.25.398.35.165.102.35.194.56.27.209.083.422.165.639.253.216.083.43.18.642.286.213.105.4.232.563.383a1.7 1.7 0 0 1 .393.544c.102.21.151.464.151.754M202.559 89.682c0 .145-.011.26-.032.348a.37.37 0 0 1-.09.187.629.629 0 0 1-.184.114 1.668 1.668 0 0 1-.28.085 3.738 3.738 0 0 1-.333.057 2.982 2.982 0 0 1-.353.023c-.356 0-.662-.047-.917-.137a1.513 1.513 0 0 1-.629-.424 1.74 1.74 0 0 1-.356-.718 4.18 4.18 0 0 1-.11-1.024v-3.969h-.965c-.077 0-.138-.04-.184-.12-.045-.08-.069-.212-.069-.393 0-.094.007-.176.019-.243a.662.662 0 0 1 .05-.159.175.175 0 0 1 .08-.09.241.241 0 0 1 .111-.027h.958v-1.615a.2.2 0 0 1 .025-.1.237.237 0 0 1 .1-.078.704.704 0 0 1 .195-.05c.082-.01.185-.014.308-.014.127 0 .232.004.313.014.082.01.146.028.191.05.046.023.08.048.1.077.02.031.03.064.03.1v1.616h1.77c.04 0 .076.01.106.026.031.016.056.046.08.091.023.042.039.096.05.16.01.066.016.148.016.242 0 .18-.024.314-.07.393-.045.08-.106.12-.183.12h-1.768v3.789c0 .468.07.82.21 1.061.14.24.392.357.754.357.117 0 .223-.009.313-.034.093-.02.174-.044.247-.07.072-.025.133-.05.184-.07a.308.308 0 0 1 .137-.037.131.131 0 0 1 .126.091 1.292 1.292 0 0 1 .05.371M208.668 86.12c.017-.656-.132-1.169-.441-1.54-.311-.374-.772-.558-1.384-.558-.314 0-.588.057-.825.172a1.764 1.764 0 0 0-.592.462c-.16.19-.283.413-.37.666-.087.254-.137.52-.146.798h3.758zm1.272.368c0 .196-.052.338-.15.42a.52.52 0 0 1-.343.124h-4.537c0 .377.037.718.115 1.02.078.301.205.56.385.776.179.218.412.383.7.497.287.118.637.176 1.053.176.328 0 .62-.027.878-.078a5.47 5.47 0 0 0 .663-.18 5.53 5.53 0 0 0 .463-.177.815.815 0 0 1 .273-.08.17.17 0 0 1 .097.029.15.15 0 0 1 .066.078.558.558 0 0 1 .033.149 1.821 1.821 0 0 1-.016.527.278.278 0 0 1-.038.1.332.332 0 0 1-.069.087c-.028.028-.11.073-.247.136a3.615 3.615 0 0 1-.537.184c-.22.062-.472.116-.762.164a5.626 5.626 0 0 1-.922.072c-.566 0-1.063-.078-1.49-.236a2.728 2.728 0 0 1-1.075-.694c-.29-.305-.51-.691-.658-1.153-.15-.465-.221-1.002-.221-1.615 0-.586.075-1.109.228-1.572.154-.469.374-.861.662-1.187a2.89 2.89 0 0 1 1.046-.745 3.43 3.43 0 0 1 1.37-.263c.541 0 1.002.087 1.382.257a2.594 2.594 0 0 1 1.477 1.71c.114.39.174.807.174 1.248v.226zM213.124 90.18a.175.175 0 0 1-.031.102.197.197 0 0 1-.1.07.624.624 0 0 1-.19.046c-.082.01-.186.014-.314.014-.122 0-.226-.003-.307-.014a.713.713 0 0 1-.196-.046.197.197 0 0 1-.1-.07.198.198 0 0 1-.026-.102V80.098c0-.043.01-.076.027-.107a.204.204 0 0 1 .099-.076.78.78 0 0 1 .196-.044c.081-.013.185-.016.307-.016.128 0 .232.003.313.016.082.009.146.024.192.044.046.019.08.047.099.076.02.031.03.064.03.107V90.18zM216.722 90.18a.175.175 0 0 1-.031.102.197.197 0 0 1-.099.07.624.624 0 0 1-.191.046c-.082.01-.186.014-.314.014-.122 0-.226-.003-.307-.014a.713.713 0 0 1-.196-.046.197.197 0 0 1-.099-.07.198.198 0 0 1-.026-.102V80.098c0-.043.009-.076.026-.107a.204.204 0 0 1 .099-.076.78.78 0 0 1 .196-.044c.081-.013.185-.016.307-.016.128 0 .232.003.314.016.081.009.146.024.191.044.046.019.08.047.099.076.02.031.031.064.031.107V90.18zM223.666 86.12c.017-.656-.131-1.169-.441-1.54-.311-.374-.772-.558-1.384-.558-.313 0-.588.057-.825.172a1.764 1.764 0 0 0-.592.462 2.08 2.08 0 0 0-.37.666c-.087.254-.137.52-.146.798h3.758zm1.272.368c0 .196-.052.338-.15.42a.52.52 0 0 1-.343.124h-4.537c0 .377.037.718.115 1.02.078.301.205.56.385.776.179.218.412.383.7.497.287.118.637.176 1.053.176.328 0 .62-.027.878-.078a5.51 5.51 0 0 0 1.126-.357.815.815 0 0 1 .273-.08.17.17 0 0 1 .097.029.15.15 0 0 1 .066.078.591.591 0 0 1 .033.149 1.821 1.821 0 0 1-.016.527.278.278 0 0 1-.038.1.333.333 0 0 1-.069.087c-.028.028-.11.073-.247.136a3.615 3.615 0 0 1-.537.184c-.22.062-.473.116-.762.164a5.626 5.626 0 0 1-.922.072c-.566 0-1.063-.078-1.49-.236a2.728 2.728 0 0 1-1.075-.694c-.29-.305-.51-.691-.658-1.153-.15-.465-.221-1.002-.221-1.615 0-.586.075-1.109.229-1.572.153-.469.373-.861.661-1.187a2.89 2.89 0 0 1 1.046-.745 3.43 3.43 0 0 1 1.37-.263c.541 0 1.002.087 1.382.257a2.59 2.59 0 0 1 1.477 1.71c.114.39.174.807.174 1.248v.226z"/>
        <path fill="#BBCDD7" d="M64.367 13.327c-9.555-6.28-21.044-5.865-26.389-4.69-5.262 1.155-13.83 3.873-20.878 11.571-.214.24-.414.486-.63.727-.051.059-.096.117-.148.178l3.757 3.068c5.514-6.438 12.667-10.28 18.859-11.755 6.298-1.504 17.144-1.042 25.695 3.84 8.472 4.395 12.878 11.612 13.148 11.844-.338-.5-3.862-8.497-13.414-14.783"/>
        <g transform="translate(6.272 .385)">
            <mask id="d" fill="#fff">
                <use xlink:href="#c"/>
            </mask>
            <path fill="#BBCDD7" d="M5.79 22.352c1.78-2.507 3.038-3.988 3.038-3.988C16.665 9.57 26.569 5.917 32.31 4.927c5.741-.99 18.551-2.22 30.186 4.669 12.054 7.147 16.603 16.03 17.067 16.846-.381-.796-3.436-8.922-13.725-17.141C55.538 1.083 41.236-.638 31.762.89 22.29 2.424 7.875 9.089.466 21.633c-.092.164-.18.319-.276.48l4.187 2.389a39.92 39.92 0 0 1 1.412-2.15" mask="url(#d)"/>
        </g>
        <path fill="#BBCDD7" d="M58.44 18.376c-7.845-4.283-16.964-3.263-20.611-2.304-3.642.963-12.324 4.159-17.513 11.638-.327.47-.64.957-.93 1.453-.16.238-.308.476-.456.714l4.24 2.391c3.688-6.553 10.77-10.944 15.733-12.416 5.099-1.508 12.846-1.675 19.72 1.217 6.648 2.638 10.742 7.555 11.057 7.827-.292-.316-3.699-6.402-11.24-10.52M64.367 78.289c-9.555 6.281-21.044 5.867-26.389 4.692-5.262-1.153-13.83-3.87-20.878-11.575-.214-.233-.414-.484-.63-.725-.051-.057-.096-.113-.148-.173l3.757-3.071c5.514 6.436 12.667 10.278 18.859 11.755 6.298 1.503 17.144 1.043 25.695-3.84 8.472-4.396 12.878-11.606 13.148-11.84-.338.506-3.862 8.495-13.414 14.777"/>
        <path fill="#BBCDD7" d="M12.061 68.88c1.781 2.51 3.039 3.992 3.039 3.992 7.836 8.793 17.741 12.445 23.481 13.433 5.742.987 18.552 2.22 30.186-4.668 12.055-7.144 16.603-16.024 17.067-16.835-.38.791-3.435 8.912-13.724 17.125-10.3 8.223-24.602 9.943-34.076 8.415-9.473-1.533-23.888-8.203-31.296-20.74-.093-.165-.18-.322-.276-.483l4.186-2.385c.443.725.913 1.439 1.413 2.147"/>
        <path fill="#BBCDD7" d="M58.44 73.244c-7.845 4.282-16.964 3.26-20.611 2.305-3.642-.966-12.324-4.165-17.513-11.635-.327-.47-.64-.953-.93-1.453-.16-.235-.308-.476-.456-.714l4.24-2.388c3.688 6.55 10.77 10.938 15.733 12.406 5.099 1.51 12.846 1.677 19.72-1.218C65.27 67.912 69.365 63 69.68 62.728c-.292.315-3.699 6.397-11.24 10.516"/>
        <path fill="#E20714" d="M18.284 26.524l-4.001-2.748c-.053.076-.108.153-.16.235l-.016.023A37.723 37.723 0 0 0 7.3 45.814a37.709 37.709 0 0 0 6.808 21.774l.016.022c.052.08.107.157.16.236l4.001-2.746c-3.895-5.504-6.141-12.172-6.121-19.287-.02-7.114 2.226-13.785 6.121-19.29"/>
        <g transform="translate(0 25.115)">
            <mask id="f" fill="#fff">
                <use xlink:href="#e"/>
            </mask>
            <path fill="#1D1D1B" d="M8.09 36.658A39.798 39.798 0 0 1 4.863 20.7 39.784 39.784 0 0 1 8.089 4.74l.011-.026a37.92 37.92 0 0 1 1.052-2.252L4.812.385c-.469.92-.903 1.826-1.286 2.734-.015.019-.02.047-.03.072-.048.12-.112.244-.16.367l.002-.01A44.81 44.81 0 0 0 0 20.699a44.809 44.809 0 0 0 3.338 17.148l-.001-.008c.047.12.111.241.158.362.011.03.016.054.031.077.383.906.817 1.811 1.286 2.73l4.34-2.075A37.542 37.542 0 0 1 8.1 36.678l-.01-.02z" mask="url(#f)"/>
        </g>
        <path fill="#F7D100" d="M21.34 55.634a25.989 25.989 0 0 1-1.872-9.82c-.02-3.455.65-6.769 1.872-9.822l-.008-.003c.207-.516.43-1.034.676-1.556l-4.445-2.003a30.31 30.31 0 0 0-.853 2.006l-.01-.003c-.045.12-.084.24-.128.358-.016.048-.04.095-.055.144h.002a30.618 30.618 0 0 0-1.912 10.878 30.625 30.625 0 0 0 1.912 10.875h-.002c.016.05.04.093.055.144.044.118.083.243.129.359l.01-.003c.253.661.535 1.335.852 2.006l4.445-2.003a28.535 28.535 0 0 1-.676-1.552l.008-.005z"/>
    </g>
</svg>
